<svg width="15" height="4" viewBox="0 0 15 4" fill="none" xmlns="http://www.w3.org/2000/svg">
    <path
        d="M0.546875 1.94727C0.546875 1.61068 0.650716 1.3278 0.858398 1.09863C1.07324 0.862305 1.38118 0.744141 1.78223 0.744141C2.18327 0.744141 2.48763 0.862305 2.69531 1.09863C2.91016 1.3278 3.01758 1.61068 3.01758 1.94727C3.01758 2.27669 2.91016 2.55599 2.69531 2.78516C2.48763 3.01432 2.18327 3.12891 1.78223 3.12891C1.38118 3.12891 1.07324 3.01432 0.858398 2.78516C0.650716 2.55599 0.546875 2.27669 0.546875 1.94727ZM6.34766 1.94727C6.34766 1.61068 6.4515 1.3278 6.65918 1.09863C6.87402 0.862305 7.18197 0.744141 7.58301 0.744141C7.98405 0.744141 8.28841 0.862305 8.49609 1.09863C8.71094 1.3278 8.81836 1.61068 8.81836 1.94727C8.81836 2.27669 8.71094 2.55599 8.49609 2.78516C8.28841 3.01432 7.98405 3.12891 7.58301 3.12891C7.18197 3.12891 6.87402 3.01432 6.65918 2.78516C6.4515 2.55599 6.34766 2.27669 6.34766 1.94727ZM12.1484 1.94727C12.1484 1.61068 12.2523 1.3278 12.46 1.09863C12.6748 0.862305 12.9827 0.744141 13.3838 0.744141C13.7848 0.744141 14.0892 0.862305 14.2969 1.09863C14.5117 1.3278 14.6191 1.61068 14.6191 1.94727C14.6191 2.27669 14.5117 2.55599 14.2969 2.78516C14.0892 3.01432 13.7848 3.12891 13.3838 3.12891C12.9827 3.12891 12.6748 3.01432 12.46 2.78516C12.2523 2.55599 12.1484 2.27669 12.1484 1.94727Z"
        fill="#868583" />
</svg>